<?xml version="1.0" encoding="UTF-8" standalone="no"?>
<!-- Created with Inkscape (http://www.inkscape.org/) -->

<svg
   xmlns:dc="http://purl.org/dc/elements/1.1/"
   xmlns:cc="http://creativecommons.org/ns#"
   xmlns:rdf="http://www.w3.org/1999/02/22-rdf-syntax-ns#"
   xmlns:svg="http://www.w3.org/2000/svg"
   xmlns="http://www.w3.org/2000/svg"
   xmlns:sodipodi="http://sodipodi.sourceforge.net/DTD/sodipodi-0.dtd"
   xmlns:inkscape="http://www.inkscape.org/namespaces/inkscape"
   width="653.37097"
   height="157.01724"
   id="svg28735"
   version="1.1"
   inkscape:version="0.48.3.1 r9886"
   sodipodi:docname="cvl_varcity_2013_horiz.svg"
   inkscape:export-filename="/home/dragon/tmp/cvl_varcity_2013_horiz_ppt.png"
   inkscape:export-xdpi="299.776"
   inkscape:export-ydpi="299.776">
  <defs
     id="defs28737">
    <inkscape:perspective
       sodipodi:type="inkscape:persp3d"
       inkscape:vp_x="0 : 526.18109 : 1"
       inkscape:vp_y="0 : 1000 : 0"
       inkscape:vp_z="744.09448 : 526.18109 : 1"
       inkscape:persp3d-origin="372.04724 : 350.78739 : 1"
       id="perspective28743" />
    <inkscape:perspective
       id="perspective28753"
       inkscape:persp3d-origin="0.5 : 0.33333333 : 1"
       inkscape:vp_z="1 : 0.5 : 1"
       inkscape:vp_y="0 : 1000 : 0"
       inkscape:vp_x="0 : 0.5 : 1"
       sodipodi:type="inkscape:persp3d" />
    <clipPath
       id="clipPath28864"
       clipPathUnits="userSpaceOnUse">
      <path
         id="path28866"
         d="m 0,0 2990,0 0,2030 -2990,0"
         inkscape:connector-curvature="0" />
    </clipPath>
    <inkscape:perspective
       id="perspective28854"
       inkscape:persp3d-origin="0.5 : 0.33333333 : 1"
       inkscape:vp_z="1 : 0.5 : 1"
       inkscape:vp_y="0 : 1000 : 0"
       inkscape:vp_x="0 : 0.5 : 1"
       sodipodi:type="inkscape:persp3d" />
    <clipPath
       id="clipPath29016"
       clipPathUnits="userSpaceOnUse">
      <path
         id="path29018"
         d="m 0,0 5950,0 0,7920 L 0,7920 0,0 z"
         inkscape:connector-curvature="0" />
    </clipPath>
    <inkscape:perspective
       id="perspective29006"
       inkscape:persp3d-origin="0.5 : 0.33333333 : 1"
       inkscape:vp_z="1 : 0.5 : 1"
       inkscape:vp_y="0 : 1000 : 0"
       inkscape:vp_x="0 : 0.5 : 1"
       sodipodi:type="inkscape:persp3d" />
    <inkscape:perspective
       id="perspective29160"
       inkscape:persp3d-origin="0.5 : 0.33333333 : 1"
       inkscape:vp_z="1 : 0.5 : 1"
       inkscape:vp_y="0 : 1000 : 0"
       inkscape:vp_x="0 : 0.5 : 1"
       sodipodi:type="inkscape:persp3d" />
    <clipPath
       id="clipPath29016-8"
       clipPathUnits="userSpaceOnUse">
      <path
         id="path29018-9"
         d="m 0,0 5950,0 0,7920 L 0,7920 0,0 z"
         inkscape:connector-curvature="0" />
    </clipPath>
    <clipPath
       id="clipPath2902"
       clipPathUnits="userSpaceOnUse">
      <path
         id="path2904"
         d="M 0,792 612,792 612,0 0,0 0,792 z"
         inkscape:connector-curvature="0" />
    </clipPath>
    <inkscape:perspective
       id="perspective2894"
       inkscape:persp3d-origin="0.5 : 0.33333333 : 1"
       inkscape:vp_z="1 : 0.5 : 1"
       inkscape:vp_y="0 : 1000 : 0"
       inkscape:vp_x="0 : 0.5 : 1"
       sodipodi:type="inkscape:persp3d" />
    <inkscape:perspective
       id="perspective3173"
       inkscape:persp3d-origin="0.5 : 0.33333333 : 1"
       inkscape:vp_z="1 : 0.5 : 1"
       inkscape:vp_y="0 : 1000 : 0"
       inkscape:vp_x="0 : 0.5 : 1"
       sodipodi:type="inkscape:persp3d" />
    <clipPath
       id="clipPath2902-8"
       clipPathUnits="userSpaceOnUse">
      <path
         id="path2904-3"
         d="M 0,792 612,792 612,0 0,0 0,792 z"
         inkscape:connector-curvature="0" />
    </clipPath>
  </defs>
  <sodipodi:namedview
     id="base"
     pagecolor="#ffffff"
     bordercolor="#666666"
     borderopacity="1.0"
     inkscape:pageopacity="0.0"
     inkscape:pageshadow="2"
     inkscape:zoom="0.35"
     inkscape:cx="-348.18153"
     inkscape:cy="-48.294301"
     inkscape:document-units="mm"
     inkscape:current-layer="layer1"
     showgrid="false"
     inkscape:window-width="1680"
     inkscape:window-height="997"
     inkscape:window-x="0"
     inkscape:window-y="27"
     inkscape:window-maximized="1"
     units="mm"
     fit-margin-top="1"
     fit-margin-right="1"
     fit-margin-bottom="1"
     fit-margin-left="1" />
  <metadata
     id="metadata28740">
    <rdf:RDF>
      <cc:Work
         rdf:about="">
        <dc:format>image/svg+xml</dc:format>
        <dc:type
           rdf:resource="http://purl.org/dc/dcmitype/StillImage" />
        <dc:title></dc:title>
      </cc:Work>
    </rdf:RDF>
  </metadata>
  <g
     inkscape:label="weißer für PPTX"
     inkscape:groupmode="layer"
     id="layer1"
     style="display:inline"
     transform="translate(-161.26139,-174.88127)">
    <rect
       style="color:#000000;fill:#ffffff;fill-opacity:1;fill-rule:nonzero;stroke:#ff0000;stroke-width:0.62500000000000000;stroke-linecap:butt;stroke-linejoin:round;stroke-miterlimit:4;stroke-opacity:1;stroke-dasharray:none;stroke-dashoffset:0;marker:none;visibility:visible;display:inline;overflow:visible;enable-background:accumulate"
       id="rect3067"
       width="1920"
       height="857.14288"
       x="-768.57141"
       y="-462.98276"
       transform="translate(161.26139,174.88127)" />
  </g>
  <g
     inkscape:groupmode="layer"
     id="layer2"
     inkscape:label="Ebene#1"
     style="display:inline"
     transform="translate(1.8866971,1.6150621)">
    <g
       id="g2961">
      <g
         transform="translate(172.4681,-372.64696)"
         id="g2885"
         style="display:inline">
        <path
           id="path29062"
           style="fill:#000000;fill-opacity:1;fill-rule:nonzero;stroke:none"
           d="m 286.72913,411.67809 0,14.01125 c -6.85,-5.735 -13.9375,-8.6025 -21.2625,-8.6025 -8.07125,0 -14.87,2.90375 -20.3975,8.6925 -5.5625,5.755 -8.34125,12.79625 -8.34125,21.125 0,8.22625 2.78,15.16625 8.34125,20.81875 5.56125,5.65375 12.3775,8.48 20.44875,8.48 4.17125,0 7.71375,-0.67375 10.63125,-2.02125 1.6275,-0.67375 3.315,-1.5825 5.06125,-2.72875 1.74625,-1.145 3.58625,-2.52625 5.51875,-4.145 l 0,14.27 c -6.77625,3.8375 -13.89,5.755 -21.34,5.755 -11.21125,0 -20.77875,-3.91125 -28.70375,-11.7325 -7.8925,-7.89 -11.8375,-17.40375 -11.8375,-28.545 0,-9.98875 3.30125,-18.895 9.90625,-26.71625 8.12875,-9.5825 18.645,-14.38125 31.54875,-14.38125 7.045,0 13.8525,1.90875 20.42625,5.72125"
           inkscape:connector-curvature="0" />
        <path
           id="path29064"
           style="fill:#000000;fill-opacity:1;fill-rule:nonzero;stroke:none"
           d="m 292.62788,407.49559 12.9575,0 21.69875,54.37375 22.00375,-54.37375 12.95875,0 -35.21625,84.355"
           inkscape:connector-curvature="0" />
        <path
           id="path29066"
           style="fill:#000000;fill-opacity:1;fill-rule:nonzero;stroke:none"
           d="m 371.97038,407.49559 11.88,0 0,67.33125 23.0575,0 0,11.13 -34.93875,0"
           inkscape:connector-curvature="0" />
        <path
           id="path29068"
           style="fill:#000000;fill-opacity:1;fill-rule:nonzero;stroke:none"
           d="m 403.97538,408.60434 0,2.505 c -1.235,-1.0175 -2.51125,-1.5275 -3.83,-1.5275 -1.4525,0 -2.6775,0.5225 -3.6725,1.5625 -1.00125,1.035 -1.5025,2.3 -1.5025,3.79625 0,1.47875 0.5,2.72625 1.5025,3.7425 1.00125,1.01625 2.2275,1.52375 3.68125,1.52375 0.75125,0 1.38875,-0.12125 1.91375,-0.365 0.29375,-0.12125 0.59625,-0.28625 0.91125,-0.4925 0.31375,-0.2075 0.645,-0.45625 0.995,-0.74875 l 0,2.57 c -1.22,0.69125 -2.49875,1.03625 -3.83875,1.03625 -2.01625,0 -3.73625,-0.70375 -5.16125,-2.10875 -1.42,-1.4175 -2.12875,-3.12875 -2.12875,-5.13125 0,-1.795 0.59375,-3.39625 1.78125,-4.80125 1.46125,-1.7225 3.3525,-2.58375 5.67375,-2.58375 1.26625,0 2.49125,0.34125 3.67375,1.0225"
           inkscape:connector-curvature="0" />
        <path
           id="path29070"
           style="fill:#000000;fill-opacity:1;fill-rule:nonzero;stroke:none"
           d="m 405.84663,417.45184 c 0,-1.28125 0.46,-2.37125 1.38,-3.27 0.92,-0.89875 2.04125,-1.35 3.36375,-1.35 1.32875,0 2.45625,0.45375 3.3825,1.35875 0.91375,0.905 1.3725,2.01625 1.3725,3.33375 0,1.33 -0.46125,2.44375 -1.38125,3.3425 -0.92625,0.8925 -2.0625,1.33875 -3.41,1.33875 -1.335,0 -2.4525,-0.455 -3.355,-1.36625 -0.9025,-0.89875 -1.3525,-2.0275 -1.3525,-3.38875 l 0,0.001 z m 2.125,0.0275 c 0,0.87625 0.23625,1.56875 0.7075,2.07875 0.48375,0.51625 1.12125,0.77375 1.9125,0.77375 0.7975,0 1.435,-0.255 1.9125,-0.765 0.4775,-0.51 0.71625,-1.19 0.71625,-2.0425 0,-0.8525 -0.23875,-1.53375 -0.71625,-2.0425 -0.48375,-0.51625 -1.12125,-0.775 -1.9125,-0.775 -0.78,0 -1.41125,0.25875 -1.895,0.775 -0.48375,0.51625 -0.725,1.1825 -0.725,1.9975"
           inkscape:connector-curvature="0" />
        <path
           id="path29072"
           style="fill:#000000;fill-opacity:1;fill-rule:nonzero;stroke:none"
           d="m 417.59663,421.95684 0,-8.87875 2,0 0,0.82 c 0.395,-0.41375 0.7325,-0.6925 1.01125,-0.83875 0.2975,-0.15125 0.67125,-0.2275 1.12,-0.2275 1.0025,0 1.795,0.42875 2.3775,1.28625 0.64375,-0.8575 1.51625,-1.28625 2.615,-1.28625 1.99875,0 3,1.2125 3,3.6375 l 0,5.4875 -2.125,0 0,-4.915 c 0,-0.84875 -0.1,-1.4475 -0.29875,-1.79875 -0.205,-0.3575 -0.5425,-0.5375 -1.01125,-0.5375 -0.545,0 -0.9425,0.21375 -1.19125,0.6375 -0.24875,0.42375 -0.37375,1.105 -0.37375,2.04375 l 0,4.56875 -2.125,0 0,-4.8875 c 0,-1.575 -0.4525,-2.36375 -1.35625,-2.36375 -0.57125,0 -0.98875,0.21625 -1.25125,0.64625 -0.26125,0.43 -0.3925,1.10875 -0.3925,2.035 l 0,4.56875"
           inkscape:connector-curvature="0" />
        <path
           id="path29074"
           style="fill:#000000;fill-opacity:1;fill-rule:nonzero;stroke:none"
           d="m 434.72163,420.95934 0,5.845 -2,0 0,-13.72375 2,0 0,0.9675 c 0.81125,-0.80875 1.7325,-1.21625 2.76375,-1.21625 1.22625,0 2.235,0.45125 3.02875,1.35 0.805,0.8925 1.2075,2.02 1.2075,3.38 0,1.33 -0.4,2.43875 -1.19875,3.325 -0.7925,0.88 -1.79375,1.32125 -3.00125,1.32125 -1.0425,0 -1.97625,-0.415 -2.8,-1.2475 l 0,-0.001 z m 4.875,-3.4 c 0,-0.84 -0.22625,-1.52375 -0.67625,-2.05125 -0.45625,-0.53375 -1.03125,-0.80125 -1.725,-0.80125 -0.735,0 -1.33125,0.25875 -1.7875,0.775 -0.45625,0.51625 -0.685,1.19375 -0.685,2.03375 0,0.8225 0.22875,1.5 0.685,2.03375 0.45125,0.5225 1.04375,0.7825 1.77875,0.7825 0.69375,0 1.26625,-0.26375 1.71625,-0.7925 0.4625,-0.5275 0.69375,-1.1875 0.69375,-1.98"
           inkscape:connector-curvature="0" />
        <path
           id="path29076"
           style="fill:#000000;fill-opacity:1;fill-rule:nonzero;stroke:none"
           d="m 443.97163,413.04809 2,0 0,5.08375 c 0,1.4675 0.58375,2.20125 1.75,2.20125 1.16625,0 1.75,-0.73375 1.75,-2.20125 l 0,-5.08375 2,0 0,5.15625 c 0,0.7125 -0.0875,1.3275 -0.2625,1.84625 -0.16875,0.4625 -0.46,0.88 -0.87375,1.2525 -0.685,0.60375 -1.55625,0.905 -2.61375,0.905 -1.05125,0 -1.92,-0.30125 -2.605,-0.905 -0.42,-0.37125 -0.7175,-0.78875 -0.8925,-1.2525 -0.16875,-0.415 -0.2525,-1.03 -0.2525,-1.84625"
           inkscape:connector-curvature="0" />
        <path
           id="path29078"
           style="fill:#000000;fill-opacity:1;fill-rule:nonzero;stroke:none"
           d="m 457.74288,414.95684 -1.64625,0 0,7 -2,0 0,-7 -0.89,0 0,-1.875 0.89,0 0,-3.3 2,0 0,3.3 1.64625,0"
           inkscape:connector-curvature="0" />
        <path
           id="path29080"
           style="fill:#000000;fill-opacity:1;fill-rule:nonzero;stroke:none"
           d="m 467.51788,417.47809 -0.009,0.47875 -6.38375,0 c 0.055,0.7275 0.2925,1.3075 0.71375,1.73875 0.42125,0.42375 0.96,0.63625 1.61875,0.63625 0.5125,0 0.935,-0.11875 1.27125,-0.3575 0.33,-0.2375 0.705,-0.6775 1.125,-1.32 l 1.7375,0.96875 c -0.26875,0.45625 -0.5525,0.8475 -0.85,1.1725 -0.29875,0.32625 -0.61875,0.59375 -0.96,0.80375 -0.34125,0.21 -0.71,0.36375 -1.1075,0.46125 -0.39625,0.0975 -0.82625,0.14625 -1.29,0.14625 -1.33,0 -2.39625,-0.425 -3.20125,-1.275 -0.805,-0.85625 -1.2075,-1.99125 -1.2075,-3.40625 0,-1.4025 0.39,-2.5375 1.17125,-3.40625 0.78625,-0.85625 1.83,-1.28625 3.12875,-1.28625 1.31125,0 2.3475,0.41375 3.11,1.23875 0.75625,0.81875 1.13375,1.955 1.13375,3.4075 l -0.001,-10e-4 z m -6.25625,-1.14625 4.13375,0 c -0.28625,-1.08375 -0.97875,-1.625 -2.07625,-1.625 -0.25,0 -0.485,0.0375 -0.705,0.1125 -0.22,0.0763 -0.42,0.18375 -0.59875,0.325 -0.18,0.14125 -0.33375,0.31125 -0.4625,0.51 -0.1275,0.19875 -0.225,0.42375 -0.2925,0.6775"
           inkscape:connector-curvature="0" />
        <path
           id="path29082"
           style="fill:#000000;fill-opacity:1;fill-rule:nonzero;stroke:none"
           d="m 469.72163,421.95684 0,-8.87875 2,0 0,0.7925 c 0.37625,-0.395 0.71,-0.665 1.00125,-0.81125 0.2975,-0.15125 0.65,-0.2275 1.05625,-0.2275 0.54,0 1.105,0.175 1.69375,0.52375 l -0.9375,1.86 c -0.38875,-0.25625 -0.7675,-0.38375 -1.1375,-0.38375 -1.11625,0 -1.675,0.84375 -1.675,2.53 l 0,4.59625"
           inkscape:connector-curvature="0" />
        <path
           id="path29084"
           style="fill:#000000;fill-opacity:1;fill-rule:nonzero;stroke:none"
           d="m 391.92038,430.33434 2.3325,0 3.90625,9.7875 3.96,-9.7875 2.3325,0 -6.33875,15.18375"
           inkscape:connector-curvature="0" />
        <path
           id="path29086"
           style="fill:#000000;fill-opacity:1;fill-rule:nonzero;stroke:none"
           d="m 406.09663,435.54809 2,0 0,8.90875 -2,0 0,-8.90875 z m -0.375,-3.7925 c 0,-0.3525 0.12875,-0.65625 0.385,-0.91375 0.25625,-0.25625 0.56375,-0.385 0.9225,-0.385 0.36375,0 0.675,0.12875 0.93125,0.385 0.25625,0.25125 0.385,0.55875 0.385,0.9225 0,0.36375 -0.12875,0.675 -0.385,0.93125 -0.25125,0.25625 -0.55875,0.385 -0.9225,0.385 -0.365,0 -0.675,-0.1275 -0.93125,-0.385 -0.25625,-0.25625 -0.385,-0.57 -0.385,-0.94125"
           inkscape:connector-curvature="0" />
        <path
           id="path29088"
           style="fill:#000000;fill-opacity:1;fill-rule:nonzero;stroke:none"
           d="m 415.82288,437.07684 -1.685,0.895 c -0.265,-0.51 -0.595,-0.765 -0.98625,-0.765 -0.1875,0 -0.3475,0.0625 -0.48,0.18625 -0.1325,0.12375 -0.19875,0.2825 -0.19875,0.475 0,0.33875 0.4,0.67375 1.20125,1.00625 1.1025,0.46625 1.84375,0.895 2.225,1.2875 0.38125,0.3925 0.57375,0.92125 0.57375,1.5875 0,0.8525 -0.32125,1.56625 -0.9625,2.14 -0.6225,0.545 -1.375,0.81625 -2.25625,0.81625 -1.51125,0 -2.58,-0.7275 -3.21,-2.18125 l 1.77625,-0.8125 c 0.2475,0.41125 0.435,0.6725 0.565,0.78375 0.2525,0.22375 0.555,0.335 0.9075,0.335 0.70375,0 1.05625,-0.31375 1.05625,-0.9425 0,-0.3625 -0.26625,-0.7 -0.7975,-1.015 -0.205,-0.1025 -0.41125,-0.2025 -0.61625,-0.29875 -0.205,-0.0962 -0.41375,-0.19625 -0.625,-0.29875 -0.59125,-0.29 -1.00875,-0.58 -1.25,-0.87 -0.3075,-0.36875 -0.4625,-0.8425 -0.4625,-1.4225 0,-0.76625 0.26125,-1.40125 0.7825,-1.9025 0.53375,-0.50125 1.18125,-0.7525 1.9425,-0.7525 1.12,0 1.95375,0.5825 2.50125,1.745"
           inkscape:connector-curvature="0" />
        <path
           id="path29090"
           style="fill:#000000;fill-opacity:1;fill-rule:nonzero;stroke:none"
           d="m 418.34663,435.54809 2,0 0,8.90875 -2,0 0,-8.90875 z m -0.375,-3.7925 c 0,-0.3525 0.12875,-0.65625 0.385,-0.91375 0.25625,-0.25625 0.56375,-0.385 0.9225,-0.385 0.36375,0 0.675,0.12875 0.93125,0.385 0.25625,0.25125 0.385,0.55875 0.385,0.9225 0,0.36375 -0.12875,0.675 -0.385,0.93125 -0.25125,0.25625 -0.55875,0.385 -0.9225,0.385 -0.365,0 -0.675,-0.1275 -0.93125,-0.385 -0.25625,-0.25625 -0.385,-0.57 -0.385,-0.94125"
           inkscape:connector-curvature="0" />
        <path
           id="path29092"
           style="fill:#000000;fill-opacity:1;fill-rule:nonzero;stroke:none"
           d="m 422.59663,439.95184 c 0,-1.28125 0.46,-2.37125 1.38,-3.27 0.92,-0.89875 2.04125,-1.35 3.36375,-1.35 1.32875,0 2.45625,0.45375 3.3825,1.35875 0.91375,0.905 1.3725,2.01625 1.3725,3.33375 0,1.33 -0.46125,2.44375 -1.38125,3.3425 -0.92625,0.8925 -2.0625,1.33875 -3.41,1.33875 -1.335,0 -2.4525,-0.455 -3.355,-1.36625 -0.9025,-0.89875 -1.3525,-2.0275 -1.3525,-3.38875 l 0,0.001 z m 2.125,0.0275 c 0,0.87625 0.23625,1.56875 0.7075,2.07875 0.48375,0.51625 1.12125,0.77375 1.9125,0.77375 0.7975,0 1.435,-0.255 1.9125,-0.765 0.4775,-0.51 0.71625,-1.19 0.71625,-2.0425 0,-0.8525 -0.23875,-1.53375 -0.71625,-2.0425 -0.48375,-0.51625 -1.12125,-0.775 -1.9125,-0.775 -0.78,0 -1.41125,0.25875 -1.895,0.775 -0.48375,0.51625 -0.725,1.1825 -0.725,1.9975"
           inkscape:connector-curvature="0" />
        <path
           id="path29094"
           style="fill:#000000;fill-opacity:1;fill-rule:nonzero;stroke:none"
           d="m 434.22163,444.45684 0,-8.87875 2.125,0 0,0.82 c 0.72125,-0.71125 1.535,-1.0675 2.44,-1.0675 1.04,0 1.85,0.325 2.43125,0.975 0.50125,0.55375 0.75375,1.455 0.75375,2.7075 l 0,5.4425 -2.125,0 0,-4.935 c 0,-0.87125 -0.12125,-1.47375 -0.3625,-1.80625 -0.235,-0.33875 -0.6625,-0.50875 -1.28375,-0.50875 -0.675,0 -1.155,0.225 -1.4375,0.6725 -0.2775,0.4425 -0.41625,1.2125 -0.41625,2.31375 l 0,4.26375"
           inkscape:connector-curvature="0" />
        <path
           id="path29096"
           style="fill:#000000;fill-opacity:1;fill-rule:nonzero;stroke:none"
           d="m 393.59663,452.83434 2.125,0 0,12.12375 4.10125,0 0,2 -6.22625,0"
           inkscape:connector-curvature="0" />
        <path
           id="path29098"
           style="fill:#000000;fill-opacity:1;fill-rule:nonzero;stroke:none"
           d="m 408.13788,459.10809 0,-1.02875 2.08375,0 0,8.8725 -2.08375,0 0,-0.92875 c -0.85375,0.78875 -1.7725,1.18375 -2.75625,1.18375 -1.24125,0 -2.2675,-0.44375 -3.0775,-1.33 -0.805,-0.905 -1.2075,-2.03375 -1.2075,-3.38875 0,-1.33 0.40125,-2.4375 1.2075,-3.325 0.805,-0.88625 1.8125,-1.33125 3.0225,-1.33125 1.045,0 1.98125,0.42625 2.81125,1.27625 z m -4.91625,3.37125 c 0,0.84 0.2275,1.525 0.68375,2.0525 0.46875,0.53375 1.0575,0.80125 1.77,0.80125 0.76,0 1.37375,-0.2575 1.8425,-0.77375 0.46875,-0.53375 0.70375,-1.2125 0.70375,-2.03375 0,-0.8225 -0.235,-1.5 -0.70375,-2.03375 -0.46875,-0.5225 -1.07625,-0.78375 -1.82375,-0.78375 -0.705,0 -1.295,0.265 -1.77,0.7925 -0.46875,0.53375 -0.7025,1.19375 -0.7025,1.98"
           inkscape:connector-curvature="0" />
        <path
           id="path29100"
           style="fill:#000000;fill-opacity:1;fill-rule:nonzero;stroke:none"
           d="m 412.59663,451.50809 2,0 0,7.57375 c 0.8375,-0.8325 1.7875,-1.25 2.85,-1.25 1.2225,0 2.24125,0.44875 3.05375,1.34125 0.81375,0.88625 1.22125,1.99125 1.22125,3.315 0,1.36625 -0.41125,2.49625 -1.23,3.38875 -0.81375,0.88625 -1.84125,1.33 -3.0825,1.33 -1.04875,0 -1.98625,-0.39625 -2.8125,-1.18875 l 0,0.9325 -2,0 0,-15.4425 z m 7,11.06125 c 0,-0.84 -0.2325,-1.52375 -0.69375,-2.0525 -0.46875,-0.54 -1.055,-0.81 -1.76,-0.81 -0.755,0 -1.36875,0.26125 -1.8425,0.78375 -0.46875,0.51625 -0.7025,1.1875 -0.7025,2.01625 0,0.8525 0.23125,1.5325 0.69375,2.0425 0.4625,0.5225 1.07,0.7825 1.82375,0.7825 0.7125,0 1.30125,-0.26125 1.77,-0.7825 0.47375,-0.5275 0.7125,-1.1875 0.7125,-1.98"
           inkscape:connector-curvature="0" />
      </g>
      <g
         transform="matrix(1.25,0,0,-1.25,-194.37789,662.32662)"
         id="g2898"
         style="display:inline">
        <g
           clip-path="url(#clipPath2902-8)"
           id="g2900">
          <g
             transform="translate(281.4766,459.6489)"
             id="g2906">
            <path
               id="path2908"
               style="fill:#5d268f;fill-opacity:1;fill-rule:nonzero;stroke:none"
               d="m 0,0 c 0,-1.352 -0.958,-3.012 -2.129,-3.687 l -15.064,-8.698 c -1.171,-0.676 -3.088,-0.676 -4.259,0 l -15.064,8.698 c -1.171,0.675 -2.129,2.335 -2.129,3.687 l 0,17.394 c 0,1.353 0.958,3.011 2.129,3.687 l 15.064,8.698 c 1.171,0.676 3.088,0.676 4.259,0 L -2.129,21.081 C -0.958,20.405 0,18.747 0,17.394 L 0,0 z"
               inkscape:connector-curvature="0" />
          </g>
          <g
             transform="translate(237.9141,461.5537)"
             id="g2910">
            <path
               id="path2912"
               style="fill:#bdbcbc;fill-opacity:1;fill-rule:nonzero;stroke:none"
               d="m 0,0 c 0,-1.353 -0.958,-3.011 -2.129,-3.688 l -11.766,-6.792 c -1.17,-0.677 -3.087,-0.677 -4.258,0 l -11.765,6.792 c -1.171,0.677 -2.129,2.335 -2.129,3.688 l 0,13.585 c 0,1.353 0.958,3.011 2.129,3.687 l 11.765,6.793 c 1.171,0.676 3.088,0.676 4.258,0 L -2.129,17.272 C -0.958,16.596 0,14.938 0,13.585 L 0,0 z"
               inkscape:connector-curvature="0" />
          </g>
          <g
             transform="translate(303.2578,421.2666)"
             id="g2914">
            <path
               id="path2916"
               style="fill:#ef2d33;fill-opacity:1;fill-rule:nonzero;stroke:none"
               d="m 0,0 c 0,-1.352 -0.958,-3.011 -2.129,-3.688 l -15.064,-8.697 c -1.171,-0.676 -3.087,-0.676 -4.259,0 l -15.064,8.697 c -1.171,0.677 -2.13,2.336 -2.13,3.688 l 0,17.394 c 0,1.352 0.959,3.012 2.13,3.688 l 15.064,8.696 c 1.172,0.676 3.088,0.676 4.259,0 L -2.129,21.082 C -0.958,20.406 0,18.746 0,17.394 L 0,0 z"
               inkscape:connector-curvature="0" />
          </g>
          <g
             transform="translate(255.0249,506.2285)"
             id="g2918">
            <path
               id="path2920"
               style="fill:#d3d2d2;fill-opacity:1;fill-rule:nonzero;stroke:none"
               d="m 0,0 c 0,1.353 -0.958,3.012 -2.129,3.688 l -9.868,5.697 c -1.17,0.676 -3.086,0.676 -4.258,0 L -26.122,3.688 C -27.293,3.012 -28.251,1.353 -28.251,0 l 0,-11.393 c 0,-1.352 0.958,-3.011 2.129,-3.688 l 9.867,-5.696 c 1.172,-0.676 3.088,-0.676 4.258,0 l 9.868,5.696 C -0.958,-14.404 0,-12.745 0,-11.393 L 0,0 z"
               inkscape:connector-curvature="0" />
          </g>
          <g
             transform="translate(198.4912,471.7412)"
             id="g2922">
            <path
               id="path2924"
               style="fill:#d3d2d2;fill-opacity:1;fill-rule:nonzero;stroke:none"
               d="M 0,0 C 0,1.352 -0.958,3.011 -2.129,3.688 L -8.01,7.083 c -1.171,0.675 -3.087,0.675 -4.258,0 L -18.149,3.688 C -19.32,3.011 -20.278,1.352 -20.278,0 l 0,-6.79 c 0,-1.353 0.958,-3.011 2.129,-3.688 l 5.881,-3.395 c 1.171,-0.676 3.087,-0.676 4.258,0 l 5.881,3.395 C -0.958,-9.801 0,-8.143 0,-6.79 L 0,0 z"
               inkscape:connector-curvature="0" />
          </g>
          <g
             transform="translate(214.0391,492.019)"
             id="g2926">
            <path
               id="path2928"
               style="fill:#e9e9e9;fill-opacity:1;fill-rule:nonzero;stroke:none"
               d="m 0,0 c 0,-1.353 -0.958,-3.011 -2.129,-3.688 l -4.222,-2.437 c -1.171,-0.677 -3.087,-0.677 -4.258,0 l -4.223,2.437 c -1.171,0.677 -2.129,2.335 -2.129,3.688 l 0,4.875 c 0,1.353 0.958,3.012 2.129,3.688 l 4.223,2.438 c 1.171,0.676 3.087,0.676 4.258,0 L -2.129,8.563 C -0.958,7.887 0,6.228 0,4.875 L 0,0 z"
               inkscape:connector-curvature="0" />
          </g>
          <g
             transform="translate(173.7886,447.4067)"
             id="g2930">
            <path
               id="path2932"
               style="fill:#e9e9e9;fill-opacity:1;fill-rule:nonzero;stroke:none"
               d="m 0,0 c 0,-1.353 -0.958,-3.012 -2.129,-3.688 l -4.223,-2.438 c -1.17,-0.676 -3.087,-0.676 -4.258,0 l -4.223,2.438 c -1.17,0.676 -2.128,2.335 -2.128,3.688 l 0,4.875 c 0,1.352 0.958,3.011 2.128,3.688 L -10.61,11 c 1.171,0.676 3.088,0.676 4.258,0 L -2.129,8.563 C -0.958,7.886 0,6.227 0,4.875 L 0,0 z"
               inkscape:connector-curvature="0" />
          </g>
          <g
             transform="translate(214.0391,444.6738)"
             id="g2934">
            <path
               id="path2936"
               style="fill:#e9e9e9;fill-opacity:1;fill-rule:nonzero;stroke:none"
               d="m 0,0 c 0,1.352 -0.958,3.011 -2.129,3.687 l -4.222,2.438 c -1.171,0.675 -3.087,0.675 -4.258,0 L -14.832,3.687 C -16.003,3.011 -16.961,1.352 -16.961,0 l 0,-4.875 c 0,-1.353 0.958,-3.013 2.129,-3.688 l 4.223,-2.438 c 1.171,-0.676 3.087,-0.676 4.258,0 l 4.222,2.438 C -0.958,-7.888 0,-6.228 0,-4.875 L 0,0 z"
               inkscape:connector-curvature="0" />
          </g>
          <g
             transform="translate(255.0249,430.4634)"
             id="g2938">
            <path
               id="path2940"
               style="fill:#d3d2d2;fill-opacity:1;fill-rule:nonzero;stroke:none"
               d="m 0,0 c 0,-1.353 -0.958,-3.012 -2.129,-3.688 l -9.868,-5.697 c -1.17,-0.675 -3.086,-0.675 -4.258,0 l -9.867,5.697 c -1.171,0.676 -2.129,2.335 -2.129,3.688 l 0,11.393 c 0,1.352 0.958,3.011 2.129,3.687 l 9.867,5.697 c 1.172,0.676 3.088,0.676 4.258,0 L -2.129,15.08 C -0.958,14.404 0,12.745 0,11.393 L 0,0 z"
               inkscape:connector-curvature="0" />
          </g>
          <g
             transform="translate(303.2578,498.0317)"
             id="g2942">
            <path
               id="path2944"
               style="fill:#3872c1;fill-opacity:1;fill-rule:nonzero;stroke:none"
               d="m 0,0 c 0,-1.352 -0.958,-3.011 -2.129,-3.687 l -15.064,-8.697 c -1.172,-0.676 -3.088,-0.676 -4.259,0 l -15.065,8.697 c -1.171,0.676 -2.129,2.335 -2.129,3.687 l 0,17.395 c 0,1.352 0.958,3.011 2.129,3.687 l 15.065,8.698 c 1.171,0.676 3.087,0.676 4.259,0 L -2.129,21.082 C -0.958,20.406 0,18.747 0,17.395 L 0,0 z"
               inkscape:connector-curvature="0" />
          </g>
          <g
             transform="translate(329.9561,477.043)"
             id="g2946">
            <path
               id="path2948"
               style="fill:#f6f013;fill-opacity:1;fill-rule:nonzero;stroke:none"
               d="m 0,0 c 0,1.353 0.957,3.011 2.129,3.687 l 15.063,8.698 c 1.172,0.676 3.088,0.676 4.259,0 L 36.516,3.687 C 37.687,3.011 38.645,1.353 38.645,0 l 0,-17.394 c 0,-1.352 -0.958,-3.012 -2.129,-3.687 l -15.065,-8.698 c -1.171,-0.676 -3.087,-0.676 -4.259,0 L 2.129,-21.081 C 0.957,-20.406 0,-18.746 0,-17.394 L 0,0 z"
               inkscape:connector-curvature="0" />
          </g>
          <g
             transform="translate(373.5176,475.1387)"
             id="g2950">
            <path
               id="path2952"
               style="fill:#bdbcbc;fill-opacity:1;fill-rule:nonzero;stroke:none"
               d="m 0,0 c 0,1.353 0.958,3.011 2.129,3.688 l 11.766,6.792 c 1.171,0.676 3.087,0.676 4.258,0 L 29.919,3.688 C 31.09,3.011 32.049,1.353 32.049,0 l 0,-13.585 c 0,-1.353 -0.959,-3.011 -2.13,-3.687 l -11.766,-6.793 c -1.171,-0.677 -3.087,-0.677 -4.258,0 L 2.129,-17.272 C 0.958,-16.596 0,-14.938 0,-13.585 L 0,0 z"
               inkscape:connector-curvature="0" />
          </g>
          <g
             transform="translate(308.1738,515.4263)"
             id="g2954">
            <path
               id="path2956"
               style="fill:#7fcc29;fill-opacity:1;fill-rule:nonzero;stroke:none"
               d="m 0,0 c 0,1.352 0.959,3.011 2.13,3.688 l 15.063,8.697 c 1.172,0.676 3.088,0.676 4.259,0 L 36.517,3.688 C 37.688,3.011 38.646,1.352 38.646,0 l 0,-17.395 c 0,-1.351 -0.958,-3.011 -2.129,-3.687 l -15.065,-8.697 c -1.171,-0.676 -3.087,-0.676 -4.259,0 L 2.13,-21.082 C 0.959,-20.406 0,-18.746 0,-17.395 L 0,0 z"
               inkscape:connector-curvature="0" />
          </g>
          <g
             transform="translate(356.4072,430.4634)"
             id="g2958">
            <path
               id="path2960"
               style="fill:#d3d2d2;fill-opacity:1;fill-rule:nonzero;stroke:none"
               d="m 0,0 c 0,-1.353 0.959,-3.012 2.13,-3.688 l 9.866,-5.697 c 1.172,-0.675 3.088,-0.675 4.259,0 l 9.867,5.697 c 1.171,0.676 2.129,2.335 2.129,3.688 l 0,11.393 c 0,1.352 -0.958,3.011 -2.129,3.687 l -9.867,5.697 c -1.171,0.676 -3.087,0.676 -4.259,0 L 2.13,15.08 C 0.959,14.404 0,12.745 0,11.393 L 0,0 z"
               inkscape:connector-curvature="0" />
          </g>
          <g
             transform="translate(412.9414,464.9512)"
             id="g2962">
            <path
               id="path2964"
               style="fill:#d3d2d2;fill-opacity:1;fill-rule:nonzero;stroke:none"
               d="M 0,0 C 0,-1.353 0.958,-3.011 2.129,-3.688 L 8.01,-7.083 c 1.171,-0.676 3.087,-0.676 4.258,0 l 5.88,3.395 c 1.172,0.677 2.13,2.335 2.13,3.688 l 0,6.79 c 0,1.352 -0.958,3.011 -2.13,3.688 l -5.88,3.395 c -1.171,0.675 -3.087,0.675 -4.258,0 L 2.129,10.478 C 0.958,9.801 0,8.142 0,6.79 L 0,0 z"
               inkscape:connector-curvature="0" />
          </g>
          <g
             transform="translate(397.3926,444.6738)"
             id="g2966">
            <path
               id="path2968"
               style="fill:#e9e9e9;fill-opacity:1;fill-rule:nonzero;stroke:none"
               d="m 0,0 c 0,1.352 0.959,3.011 2.13,3.687 l 4.222,2.438 c 1.17,0.675 3.087,0.675 4.258,0 L 14.833,3.687 C 16.004,3.011 16.962,1.352 16.962,0 l 0,-4.875 c 0,-1.353 -0.958,-3.013 -2.129,-3.688 l -4.223,-2.438 c -1.171,-0.676 -3.088,-0.676 -4.258,0 L 2.13,-8.563 C 0.959,-7.888 0,-6.228 0,-4.875 L 0,0 z"
               inkscape:connector-curvature="0" />
          </g>
          <g
             transform="translate(437.6436,489.2856)"
             id="g2970">
            <path
               id="path2972"
               style="fill:#e9e9e9;fill-opacity:1;fill-rule:nonzero;stroke:none"
               d="m 0,0 c 0,1.353 0.958,3.012 2.13,3.688 l 4.222,2.437 c 1.17,0.677 3.086,0.677 4.258,0 L 14.832,3.688 C 16.004,3.012 16.962,1.353 16.962,0 l 0,-4.875 c 0,-1.353 -0.958,-3.012 -2.13,-3.688 l -4.222,-2.438 c -1.172,-0.676 -3.088,-0.676 -4.258,0 L 2.13,-8.563 C 0.958,-7.887 0,-6.228 0,-4.875 L 0,0 z"
               inkscape:connector-curvature="0" />
          </g>
          <g
             transform="translate(397.3926,492.019)"
             id="g2974">
            <path
               id="path2976"
               style="fill:#e9e9e9;fill-opacity:1;fill-rule:nonzero;stroke:none"
               d="m 0,0 c 0,-1.353 0.959,-3.011 2.13,-3.688 l 4.222,-2.437 c 1.17,-0.677 3.087,-0.677 4.258,0 l 4.223,2.437 c 1.171,0.677 2.129,2.335 2.129,3.688 l 0,4.875 c 0,1.353 -0.958,3.012 -2.129,3.688 l -4.223,2.438 c -1.171,0.676 -3.088,0.676 -4.258,0 L 2.13,8.563 C 0.959,7.887 0,6.228 0,4.875 L 0,0 z"
               inkscape:connector-curvature="0" />
          </g>
          <g
             transform="translate(356.4072,506.2285)"
             id="g2978">
            <path
               id="path2980"
               style="fill:#d3d2d2;fill-opacity:1;fill-rule:nonzero;stroke:none"
               d="m 0,0 c 0,1.353 0.959,3.012 2.13,3.688 l 9.866,5.697 c 1.172,0.676 3.088,0.676 4.259,0 L 26.122,3.688 C 27.293,3.012 28.251,1.353 28.251,0 l 0,-11.393 c 0,-1.352 -0.958,-3.011 -2.129,-3.688 l -9.867,-5.696 c -1.171,-0.676 -3.087,-0.676 -4.259,0 L 2.13,-15.081 C 0.959,-14.404 0,-12.745 0,-11.393 L 0,0 z"
               inkscape:connector-curvature="0" />
          </g>
          <g
             transform="translate(308.1748,438.6602)"
             id="g2982">
            <path
               id="path2984"
               style="fill:#f68714;fill-opacity:1;fill-rule:nonzero;stroke:none"
               d="m 0,0 c 0,1.353 0.958,3.012 2.129,3.688 l 15.064,8.697 c 1.171,0.676 3.087,0.676 4.258,0 L 36.516,3.688 C 37.687,3.012 38.646,1.353 38.646,0 l 0,-17.394 c 0,-1.352 -0.959,-3.011 -2.13,-3.687 l -15.065,-8.698 c -1.171,-0.676 -3.087,-0.676 -4.258,0 L 2.129,-21.081 C 0.958,-20.405 0,-18.746 0,-17.394 L 0,0 z"
               inkscape:connector-curvature="0" />
          </g>
          <g
             transform="translate(325.4766,459.6489)"
             id="g2986">
            <path
               id="path2988"
               style="fill:#100f0d;fill-opacity:1;fill-rule:nonzero;stroke:none"
               d="m 0,0 c 0,-1.352 -0.958,-3.012 -2.129,-3.687 l -15.064,-8.698 c -1.171,-0.676 -3.088,-0.676 -4.258,0 l -15.065,8.698 c -1.172,0.675 -2.129,2.335 -2.129,3.687 l 0,17.394 c 0,1.353 0.957,3.011 2.129,3.687 l 15.065,8.698 c 1.17,0.676 3.087,0.676 4.258,0 L -2.129,21.081 C -0.958,20.405 0,18.747 0,17.394 L 0,0 z"
               inkscape:connector-curvature="0" />
          </g>
        </g>
      </g>
    </g>
  </g>
</svg>
