<?xml version="1.0" encoding="UTF-8" standalone="no"?>
<!-- Created with Inkscape (http://www.inkscape.org/) -->

<svg
   xmlns:dc="http://purl.org/dc/elements/1.1/"
   xmlns:cc="http://creativecommons.org/ns#"
   xmlns:rdf="http://www.w3.org/1999/02/22-rdf-syntax-ns#"
   xmlns:svg="http://www.w3.org/2000/svg"
   xmlns="http://www.w3.org/2000/svg"
   version="1.1"
   width="744.09448"
   height="1052.3622"
   id="svg2">
  <defs
     id="defs4">
    <clipPath
       id="clipPath10803">
      <path
         d="m 0,0 1407,0 0,228.613 -1407,0 L 0,0 z"
         id="path10805" />
    </clipPath>
  </defs>
  <metadata
     id="metadata7">
    <rdf:RDF>
      <cc:Work
         rdf:about="">
        <dc:format>image/svg+xml</dc:format>
        <dc:type
           rdf:resource="http://purl.org/dc/dcmitype/StillImage" />
        <dc:title></dc:title>
      </cc:Work>
    </rdf:RDF>
  </metadata>
  <g
     id="layer1">
    <g
       transform="matrix(4.2746846,0,0,-4.2746846,79.275937,346.93889)"
       id="g10795">
      <g
         transform="scale(0.1,0.1)"
         id="g10797">
        <g
           id="g10799">
          <g
             clip-path="url(#clipPath10803)"
             id="g10801">
            <path
               d="m 864.984,62.3398 c -8.097,-40.1679 -39.129,-42.2109 -45.277,-42.2109 -17.519,0 -27.969,10.1211 -27.969,27.043 0,3.8633 0.567,9.1211 1.547,14.3906 l 19.195,95.6135 0.082,0.367 -22.667,0 -19.559,-98.0469 -0.258,-1.4023 c -0.84,-4.4258 -1.625,-8.625 -1.625,-14.0743 C 768.453,17.6758 785.754,0 811.539,0 c 18.859,0 34.008,6.1875 45.07,18.4062 L 853.672,2.25781 853.598,1.875 l 22.347,0 30.887,155.301 0.063,0.367 -22.993,0 -18.918,-95.2032"
               id="path10807"
               style="fill:#231f20;fill-opacity:1;fill-rule:nonzero;stroke:none" />
            <path
               d="m 1019.54,159.434 c -17.52,0 -33.048,-7.164 -42.817,-19.739 l 3.511,17.481 0.071,0.367 -22.356,0 L 927.062,2.25781 926.988,1.875 l 22.692,0 18.91,95.2422 c 4.832,24.4488 23.601,42.1798 44.65,42.1798 9.04,0 16.16,-3.567 21.76,-10.875 l 0.21,-0.281 18.41,16.488 -0.19,0.234 c -8.5,9.825 -19.6,14.571 -33.89,14.571"
               id="path10809"
               style="fill:#231f20;fill-opacity:1;fill-rule:nonzero;stroke:none" />
            <path
               d="m 644.684,137.797 -0.071,-0.387 77.36,0 L 618.98,20.9688 618.926,20.9062 615.043,1.875 l 109.781,0 3.906,20.1406 -82.066,0 103.313,116.4494 0.046,0.07 3.872,19.008 -105.372,0 -3.839,-19.746"
               id="path10811"
               style="fill:#231f20;fill-opacity:1;fill-rule:nonzero;stroke:none" />
            <path
               d="m 1056.5,2.25781 -0.07,-0.38281 22.67,0 30.93,155.668 -22.3,0 L 1056.5,2.25781"
               id="path10813"
               style="fill:#231f20;fill-opacity:1;fill-rule:nonzero;stroke:none" />
            <path
               d="m 1363.91,159.422 c -18.65,0 -33.21,-5.711 -44.4,-17.492 l 17.58,86.683 -22.68,0 -45.55,-226.75753 22.68,0 18.9,95.25393 c 8.11,40.1526 39.42,42.1836 45.6,42.1836 17.33,0 27.69,-10.113 27.69,-27.043 0,-3.836 -0.59,-9.074 -1.59,-14.3984 l -19.23,-95.99613 22.65,0 19.88,98.08593 c 0.96,5.2146 1.6,9.6176 1.6,15.4686 0,26.328 -17.36,44.012 -43.13,44.012"
               id="path10815"
               style="fill:#231f20;fill-opacity:1;fill-rule:nonzero;stroke:none" />
            <path
               d="m 1213.6,159.434 c -41.13,0 -70,-28.977 -79.23,-79.4926 -1.66,-8.4609 -2.24,-17.9258 -2.24,-23.9687 C 1132.13,21.4492 1153.09,0 1186.85,0 c 19.63,0 37.55,7.52344 51.81,21.7734 l 0.2,0.2149 -13.07,15.9492 -0.24,0.2852 -0.24,-0.2696 c -12.03,-12.6562 -22.81,-17.8242 -37.21,-17.8242 -16.09,0 -33.3,9.5781 -33.3,36.4766 0,8.4179 1,15.375 2.49,23.2187 2.43,13.1992 7.9,31.6408 20.05,44.4688 9.66,9.953 21.11,15.004 34.06,15.004 13.52,0 21.97,-4.809 30.22,-17.149 l 0.19,-0.308 16.64,14.062 0.24,0.196 -0.18,0.254 c -11.37,15.972 -25.22,23.082 -44.91,23.082"
               id="path10817"
               style="fill:#231f20;fill-opacity:1;fill-rule:nonzero;stroke:none" />
            <path
               d="m 1096.15,200.27 22.72,0 5.65,28.343 -22.64,0 -5.73,-28.343"
               id="path10819"
               style="fill:#231f20;fill-opacity:1;fill-rule:nonzero;stroke:none" />
            <path
               d="m 875.68,200.27 22.726,0 5.625,28.343 -22.609,0 -5.742,-28.343"
               id="path10821"
               style="fill:#231f20;fill-opacity:1;fill-rule:nonzero;stroke:none" />
            <path
               d="m 815.215,200.27 22.723,0 5.636,28.343 -22.613,0 -5.746,-28.343"
               id="path10823"
               style="fill:#231f20;fill-opacity:1;fill-rule:nonzero;stroke:none" />
            <path
               d="m 512.289,140.746 -51.016,0 17.915,87.867 -433.645,0 L 0,1.85547 l 172.898,0 11.325,56.67973 -102.0824,0 6.1914,31.1836 102.051,0 10.269,51.0272 -102.0739,0 6.1839,31.188 161.8,0 -34.16,-170.07853 70.868,0 34.156,170.07853 59.5,0 -34.156,-170.07853 70.878,0 17.489,87.86333 51.008,0 -17.493,-87.86333 70.868,0 45.558,226.75753 -70.867,0 -17.922,-87.867"
               id="path10825"
               style="fill:#231f20;fill-opacity:1;fill-rule:nonzero;stroke:none" />
          </g>
        </g>
      </g>
    </g>
  </g>
</svg>
